<svg width="16" height="16" viewBox="0 0 16 16" fill="none" xmlns="http://www.w3.org/2000/svg">
<path fill-rule="evenodd" clip-rule="evenodd" d="M4.5 0C4.77614 0 5 0.223858 5 0.5V2H11V0.5C11 0.223858 11.2239 0 11.5 0C11.7761 0 12 0.223858 12 0.5V2H14.5C15.3281 2 16 2.67186 16 3.5V5.5V14.5C16 15.3281 15.3281 16 14.5 16H1.5C0.671858 16 0 15.3281 0 14.5V5.5V3.5C0 2.67186 0.671858 2 1.5 2H4V0.5C4 0.223858 4.22386 0 4.5 0ZM11.5 3H4.5H1.5C1.22414 3 1 3.22414 1 3.5V5H15V3.5C15 3.22414 14.7759 3 14.5 3H11.5Z" fill="#626D8A"/>
</svg>
