<svg width="24" height="24" viewBox="0 0 24 24" xmlns="http://www.w3.org/2000/svg">
<path fill-rule="evenodd" clip-rule="evenodd" d="M16.8536 0.146569C16.6583 -0.0486935 16.3417 -0.0486935 16.1465 0.146569L13.1481 3.14491C13.1476 3.14546 13.147 3.14602 13.1464 3.14657C13.1459 3.14712 13.1453 3.14768 13.1448 3.14823L1.14645 15.1466C1.07665 15.2164 1.02908 15.3053 1.00972 15.4021L0.00971776 20.4021C-0.0230682 20.566 0.028243 20.7355 0.146455 20.8537C0.264666 20.9719 0.434136 21.0232 0.598066 20.9904L5.59807 19.9904C5.69486 19.9711 5.78376 19.9235 5.85356 19.8537L17.8536 7.85368L20.8536 4.85368C21.0488 4.65841 21.0488 4.34183 20.8536 4.14657L16.8536 0.146569ZM17.5 6.79302L19.7929 4.50012L16.5 1.20723L14.2071 3.50013L17.5 6.79302ZM13.5 4.20723L16.7929 7.50013L5.2535 19.0395L1.13739 19.8627L1.96061 15.7466L13.5 4.20723Z" />
</svg>
