<svg width="24" height="24" viewBox="0 0 24 24" xmlns="http://www.w3.org/2000/svg">
    <path fill-rule="evenodd" clip-rule="evenodd"
          d="M8.5 1.00012C8.22386 1.00012 8 1.22398 8 1.50012V5.00012H1.5C1.22386 5.00012 1 5.22398 1 5.50012C1 5.77626 1.22386 6.00012 1.5 6.00012H8.5H16.5H23.5C23.7761 6.00012 24 5.77626 24 5.50012C24 5.22398 23.7761 5.00012 23.5 5.00012H17V1.50012C17 1.22398 16.7761 1.00012 16.5 1.00012H8.5ZM16 5.00012V2.00012H9V5.00012H16ZM4.5 9.00012C4.77614 9.00012 5 9.22398 5 9.50012V21.5001C5 21.8979 5.15804 22.2795 5.43934 22.5608C5.72064 22.8421 6.10218 23.0001 6.5 23.0001H18.5C18.8978 23.0001 19.2794 22.8421 19.5607 22.5608C19.842 22.2795 20 21.8979 20 21.5001V9.50012C20 9.22398 20.2239 9.00012 20.5 9.00012C20.7761 9.00012 21 9.22398 21 9.50012V21.5001C21 22.1632 20.7366 22.799 20.2678 23.2679C19.7989 23.7367 19.163 24.0001 18.5 24.0001H6.5C5.83696 24.0001 5.20107 23.7367 4.73223 23.2679C4.26339 22.799 4 22.1632 4 21.5001V9.50012C4 9.22398 4.22386 9.00012 4.5 9.00012Z"
    />
</svg>
